<?xml version="1.0" encoding="UTF-8" standalone="no"?> <svg width="64" height="64" viewBox="0 0 64 64" fill="none" xmlns="http://www.w3.org/2000/svg">
<path d="M13.68 44.75C13.8791 44.9248 14.1393 45.0135 14.4037 44.9966C14.668 44.9798 14.9149 44.8587 15.09 44.66C15.2649 44.461 15.3536 44.2007 15.3367 43.9364C15.3198 43.672 15.1987 43.4252 15 43.25C11.2908 39.9097 8.00017 36.1322 5.20005 32C7.30005 28.87 18.65 13 32 13C35.7442 13.0939 39.3986 14.1661 42.6 16.11C42.8308 16.2426 43.1048 16.2781 43.3617 16.2087C43.6186 16.1393 43.8374 15.9707 43.9701 15.74C44.1027 15.5093 44.1382 15.2353 44.0688 14.9784C43.9994 14.7214 43.8308 14.5026 43.6 14.37C40.095 12.2508 36.095 11.0887 32 11C16.17 11 3.68005 30.63 3.15005 31.47C3.05072 31.6289 2.99805 31.8126 2.99805 32C2.99805 32.1874 3.05072 32.3711 3.15005 32.53C6.11546 37.0426 9.65515 41.1504 13.68 44.75V44.75Z" fill="black"/>
<path d="M60.85 31.4699C57.328 26.1288 52.9923 21.3713 48 17.3699L52.67 12.7099C52.8583 12.5216 52.9641 12.2662 52.9641 11.9999C52.9641 11.7336 52.8583 11.4782 52.67 11.2899C52.4817 11.1016 52.2263 10.9958 51.96 10.9958C51.6937 10.9958 51.4383 11.1016 51.25 11.2899L11.25 51.2899C11.1563 51.3829 11.0819 51.4935 11.0311 51.6154C10.9804 51.7372 10.9542 51.8679 10.9542 51.9999C10.9542 52.132 10.9804 52.2627 11.0311 52.3845C11.0819 52.5064 11.1563 52.617 11.25 52.7099C11.343 52.8037 11.4536 52.8781 11.5754 52.9288C11.6973 52.9796 11.828 53.0057 11.96 53.0057C12.092 53.0057 12.2227 52.9796 12.3446 52.9288C12.4665 52.8781 12.5771 52.8037 12.67 52.7099L17.55 47.8199C22.48 51.2499 27.32 52.9999 32 52.9999C47.83 52.9999 60.32 33.3699 60.85 32.5299C60.9494 32.371 61.002 32.1874 61.002 31.9999C61.002 31.8125 60.9494 31.6289 60.85 31.4699ZM41.77 23.6499C43.8794 26.1077 44.9829 29.2714 44.8596 32.5079C44.7363 35.7444 43.3954 38.8149 41.1052 41.1051C38.815 43.3953 35.7444 44.7362 32.508 44.8595C29.2715 44.9828 26.1078 43.8793 23.65 41.7699L41.77 23.6499ZM32 50.9999C27.83 50.9999 23.47 49.4299 19 46.3799L22.2 43.1799C25.0222 45.7402 28.7205 47.1176 32.5299 47.0272C36.3393 46.9369 39.9682 45.3856 42.6657 42.6944C45.3633 40.0033 46.9232 36.3781 47.0227 32.569C47.1221 28.7598 45.7535 25.0582 43.2 22.2299L46.64 18.7999C51.3322 22.5654 55.4314 27.0152 58.8 31.9999C56.7 35.1299 45.35 50.9999 32 50.9999Z" fill="black"/>
<path d="M32 19.14C34.1218 19.1411 36.2105 19.6667 38.08 20.67C38.3088 20.757 38.5615 20.757 38.7903 20.6701C39.0191 20.5831 39.208 20.4154 39.3214 20.1985C39.4348 19.9816 39.4647 19.7307 39.4055 19.4932C39.3462 19.2558 39.202 19.0483 39 18.91C36.1912 17.4127 32.9756 16.8575 29.8272 17.3263C26.6789 17.7951 23.7645 19.263 21.5138 21.5138C19.263 23.7645 17.7951 26.6789 17.3263 29.8272C16.8575 32.9756 17.4127 36.1912 18.91 39C19.0444 39.2148 19.2553 39.3706 19.5001 39.4358C19.7449 39.5011 20.0054 39.471 20.2289 39.3516C20.4523 39.2323 20.6222 39.0326 20.7041 38.7928C20.786 38.5531 20.7738 38.2912 20.67 38.06C19.6237 36.1016 19.1023 33.9056 19.1565 31.6858C19.2108 29.466 19.8389 27.2981 20.9797 25.3931C22.1205 23.4881 23.7351 21.9109 25.6663 20.8151C27.5975 19.7193 29.7796 19.1422 32 19.14V19.14Z" fill="black"/>
</svg>
